<?xml version="1.0" encoding="utf-8"?>
<!-- Generator: Adobe Illustrator 23.0.5, SVG Export Plug-In . SVG Version: 6.00 Build 0)  -->
<svg version="1.1" id="Layer_1" xmlns="http://www.w3.org/2000/svg" xmlns:xlink="http://www.w3.org/1999/xlink" x="0px" y="0px"
	 viewBox="0 0 2000 2000" style="enable-background:new 0 0 2000 2000;" xml:space="preserve">
<style type="text/css">
	.st0{clip-path:url(#SVGID_2_);fill:#020303;}
	.st1{clip-path:url(#SVGID_2_);fill:#F7941D;}
	.st2{clip-path:url(#SVGID_2_);fill:#00AEEF;}
	.st3{clip-path:url(#SVGID_2_);fill:#268ECB;}
</style>
<g>
	<defs>
		<rect id="SVGID_1_" x="-58.63" y="-114.99" width="2000" height="2000"/>
	</defs>
	<clipPath id="SVGID_2_">
		<use xlink:href="#SVGID_1_"  style="overflow:visible;"/>
	</clipPath>
	<path class="st0" d="M1176.42,889.22c-3.27-2.5-6.58-4.92-9.97-7.25C1169.85,884.25,1173.17,886.68,1176.42,889.22"/>
	<path class="st0" d="M1221.61,930.24c0.84,1.48,1.69,2.96,2.53,4.44c-0.39,0.42-0.81,0.81-1.26,1.16
		c-0.87-1.42-1.75-2.83-2.62-4.25C1220.72,931.14,1221.16,930.69,1221.61,930.24"/>
	<path class="st0" d="M1219.15,927.53c0.82,0.9,1.64,1.81,2.47,2.71c-0.45,0.45-0.9,0.91-1.35,1.36c-0.83-0.81-1.66-1.63-2.49-2.44
		C1218.23,928.61,1218.69,928.07,1219.15,927.53"/>
	<path class="st0" d="M1174.51,878.29c-0.63-0.5-1.23-1.01-1.86-1.53C1173.19,877.2,1173.81,877.7,1174.51,878.29"/>
	<path class="st1" d="M1175.24,1284.26c-47.82,39.74-102.21,66.1-163.09,79c-175.72,37.23-351.88-45.92-433.86-205.71
		c-33.87-66.02-46.71-136.74-42.16-210.76c0.6-9.84,3.92-13.79,14.32-13.37c19.23,0.77,38.54,0.9,57.75-0.04
		c11.78-0.58,15.85,3.01,14.35,14.82c-4.61,36.06-2.88,72.05,5.88,107.24c34.91,140.25,121.29,232.68,260.75,271.46
		C989.8,1354.87,1085.52,1337.6,1175.24,1284.26"/>
	<path class="st2" d="M1275.16,1016.66c6.33-24.22,12.07-46.79,18.13-69.27c11.58-42.97,23.64-85.82,34.77-128.9
		c2.09-8.1,4.52-11.48,13.4-11.29c28.12,0.61,56.26,0.64,84.38,0.11c9.32-0.17,10.77,2.54,8.33,10.94
		c-27.9,96.22-55.49,192.53-83.33,288.77c-7.24,25.01-22.29,42.41-49.24,46.58c-30.33,4.69-52.81-7.47-67.69-33.69
		c-36.7-64.71-74.27-128.93-109.52-196.76c-10.44,19.4-19.98,37.8-30.12,55.87c-26.61,47.46-52.99,95.07-80.41,142.07
		c-20.31,34.82-59.17,44-91.18,23.14c-14.09-9.18-21.22-23.13-25.71-38.36c-28.2-95.6-55.77-191.38-84.37-286.86
		c-3.58-11.96,0.7-11.8,9.53-11.7c26.65,0.29,53.31,0.51,79.95-0.12c9.1-0.22,12.59,2.72,14.88,11.5
		c17.08,65.53,36.07,130.56,51.46,198.08c22.75-43.21,44.8-85.12,66.89-127.01c8.91-16.89,18.09-33.64,26.83-50.62
		c12.66-24.6,32.25-37.24,60.28-37.37c28.22-0.13,47.48,13.24,60.26,37.44c30.16,57.13,61.39,113.7,89.38,171.96
		C1272.69,1012.42,1273.44,1013.6,1275.16,1016.66"/>
	<path class="st2" d="M876.24,1149.5c-33.52,0-64.11-0.46-94.67,0.28c-9.34,0.22-12.88-3.31-15.25-11.46
		c-21.72-74.59-44.2-148.96-65.11-223.78c-3.89-13.93-9.65-17.02-22.99-16.78c-47.3,0.82-94.61,0.32-143.2,0.32
		c4.02-11.44,12.62-18.89,19.01-27.64c13.06-17.88,27-35.11,40.22-52.87c5.37-7.21,11.23-10.56,20.87-10.43
		c47.84,0.61,95.7,0.63,143.54,0c11.13-0.15,15.99,2.7,19.14,14.02c27.09,97.4,54.95,194.58,82.56,291.84
		C863.81,1125.1,868.69,1136.62,876.24,1149.5"/>
	<path class="st2" d="M1040.26,807.4c-16.01,29.92-31.12,58.15-46.2,86.39c-3.39,6.36-9.34,3.88-14.45,4.35
		c-6.35,0.58-7.03-4.84-8.08-8.66c-6.87-24.88-13-49.96-20.16-74.75c-2.05-7.1,0.79-7.36,5.98-7.35
		C984.25,807.42,1011.15,807.4,1040.26,807.4"/>
	<polyline class="st3" points="783.5,682.63 783.57,682.7 783.5,682.63 	"/>
	<path class="st3" d="M783.49,682.64c0.47-0.44,0.92-0.89,1.39-1.33c-0.45,0.47-0.89,0.95-1.3,1.39L783.49,682.64z"/>
	<path class="st3" d="M786.54,679.7c-0.53,0.53-1.1,1.07-1.66,1.6c0.42-0.42,0.8-0.86,1.22-1.3c0.15-0.12,0.27-0.24,0.42-0.33
		L786.54,679.7z"/>
	<path class="st3" d="M789.51,676.8l-0.09-0.09h0.03C789.48,676.77,789.51,676.8,789.51,676.8"/>
	<path class="st2" d="M1391.77,751.36c-1.39-2.04-41.64-61.79-96.67-104.82c-0.06-0.06-0.15-0.12-0.21-0.18
		c-5.54-4.33-11.2-8.47-17.01-12.36c-0.27-0.21-0.56-0.39-0.86-0.59c-37.25-25.57-78.56-44.87-124.14-57.55
		c-180.44-50.17-372.21,25.99-469.14,186.43c-5.27,8.71-10.34,12.39-20.6,12.09c-26.46-0.77-52.96-0.27-81.38-0.27
		c19.14-39.06,42.41-72.84,70.21-103.39c68.57-75.33,152.62-124.85,252.72-143.52c138.87-25.9,265.2,4.59,376.65,92.22
		c0.86,0.68,1.72,1.33,2.55,2.04c0,0,0.5,0.39,1.42,1.13c0.15,0.12,0.29,0.24,0.44,0.36c0.56,0.44,1.16,0.92,1.72,1.36
		c0.03,0,0.06,0.03,0.09,0.09l0.89,0.71c1.07,0.89,2.1,1.75,3.17,2.61c2.43,2.02,5.36,4.47,8.65,7.35c1.75,1.54,3.5,3.08,5.22,4.62
		c0.06,0.06,0.12,0.09,0.18,0.18C1331.85,663.35,1374.4,706.4,1391.77,751.36"/>
	<path class="st2" d="M1352.89,1242.79c-74.68,104.91-175.97,168.98-303.61,189.96c-139.4,22.94-281.14-20-384.63-115.46h-0.03
		c-0.06-0.09-0.12-0.12-0.18-0.18c-0.18-0.18-0.36-0.33-0.53-0.5c-0.27-0.24-0.53-0.47-0.8-0.74c-0.35-0.33-0.8-0.74-1.27-1.22
		c-0.65-0.62-1.39-1.33-2.25-2.16c-5.9-5.72-16.42-16.21-28.36-29.4c-0.09-0.12-0.18-0.21-0.3-0.33
		c-19.53-21.6-42.82-50.41-56.25-77.79c1.24,1.6,41.37,52.54,76.52,86.12c8.77,8.36,17.22,15.65,24.69,20.83
		c56.93,44.45,123.28,72.34,199.2,80.73c171.35,18.97,307.13-45.43,405.25-187.67c6.25-9.1,11.68-15.11,24.39-16.95
		c42.88-6.13,68.49-33.19,80.16-74.03c15.2-53.08,30.11-106.21,45.19-159.31c0.77-2.67,2.22-5.13,4.68-10.76
		C1442.33,1055.56,1415.66,1154.6,1352.89,1242.79"/>
	<path class="st1" d="M1375.06,772.07c-28.95,0-56.93,0.15-84.87-0.06c-8.42-0.09-10.58-8.24-14.61-13.39
		c-50.91-65.31-116.17-109.65-196.45-129.38c-76.34-18.76-150.1-14.94-220.33,12.95c-8.42,3.35-16.8,7.02-25.1,11.08
		c-0.03,0-0.09,0.03-0.12,0.06c-31.65,16.03-58.7,36.75-60.78,38.35c3.47-3.41,8.15-7.47,13.31-11.68c0.15-0.12,0.27-0.24,0.41-0.33
		l0.03,0.03c0.15-0.15,0.29-0.3,0.44-0.42c3.62-2.96,7.44-5.99,11.23-8.92c0.09-0.09,0.18-0.18,0.29-0.24
		c0.06-0.03,0.09-0.09,0.15-0.12c0.03-0.03,0.03-0.03,0.06-0.06c0.09-0.09,0.21-0.15,0.3-0.24c11.94-9.27,23.29-17.51,25.93-19.41
		c0.39-0.27,0.59-0.42,0.59-0.42C1000.89,530.76,1259.84,579.39,1375.06,772.07"/>
</g>
</svg>
